<svg width="1440" height="720" fill="none" xmlns="http://www.w3.org/2000/svg">
  <path opacity=".3" d="M744.8 239.2a31.6 31.6 0 00-57 25.7l49.8-14.5 10.8-3.1a31.6 31.6 0 00-3.6-8zm-160 211.1a19 19 0 0017-33.3l-18 25.4-3.8 5.5a19 19 0 004.7 2.4z" fill="#A3E7FF"/>
  <path opacity=".3" fill-rule="evenodd" clip-rule="evenodd" d="M607.9 341l-3-8.6c-.2-.6-.6-1.2-.6-1.8 0-.5.3-1.3.7-1.5.3-.2 1.3 0 1.5.5a24.7 24.7 0 012.1 3.9l2.4 6.3 6.7-5.7c.9-.8 1.7-2.2 3.2-1.1 1 .7.6 1.8-1.3 3.3l-6.8 5.5c3.2 2.7 7.4 1.2 10.5 3.2-1.1 2.5-1.4 2.7-3.8 2.2l-6.8-1.5 1.3 5.8c.2 1.2.7 2.4 1 3.7.3 1.6-.3 2.6-2.4 2.9l-3.3-12.4-4 2.8c-1.5 1-3 2-4.6 2.7-1 .5-2 .8-3-.7l8-5.5c-3.7-2.5-9-1.8-11.7-5.8 1-2 2.3-1.5 3.7-.7 2.7 1.4 5.5 2.3 8.5 2.5h1.7zM439 200v20l25-20h-25zm-15 259.8c-3-.2-5.6-1.4-7.9-3.3a11 11 0 01-3.2-3.8 8.3 8.3 0 01-.6-4.7c.2-1 .8-1.9 1.5-2.6.6-.5 1.1-.6 1.7 0 .4.2.7.6 1 1l2.8 3.8 1.4 1.6 1.3.7c.7-.5.5-1 .3-1.6a270.7 270.7 0 00-1.7-4.7 6.4 6.4 0 01-.3-3.4l.3-1c.7-1.2 2-1.5 3-.6l1.6 1.6 4 5.2c.3.4.7.8 1.1 1 .7.4 1.2.2 1.6-.4.3-.6.4-1.3.3-2l-1.1-5.4a10 10 0 01-.1-2.7c.2-1.8 1.5-2.5 3.2-1.5 1 .6 1.7 1.5 2.3 2.5l2 3.6c.6 1 .7 1 1.5 1.3a3 3 0 00.8-2.2l-.4-3.6c-.2-1.4.1-2.6 1-3.7.9-.9 1.5-1 2.5-.3 1.1.8 1.8 2 2.5 3a15 15 0 012.2 5.7 8.1 8.1 0 01-.2 3.4c-.5 2-1.2 4-2.6 5.6v.3s-3.8 2.8-9.8 5c-6 2.3-11.4 2.3-12 2.2zm311.3-255.3c3.7 14 23.2 14.5 23.2 14.5l-4-19.6-19.2 5zM381.5 339.8c-2.7-10.7-17.5-11.3-17.5-11.3l2.7 15 14.8-3.7zM817 655c-1-3.2-2-5.9-3-8.6-.2-.6-.6-1.2-.6-1.8 0-.5.3-1.3.7-1.5.3-.2 1.3 0 1.5.5a24.7 24.7 0 012.1 3.9l2.4 6.3 6.7-5.7c.9-.8 1.7-2.2 3.2-1.1 1 .7.6 1.8-1.3 3.3l-6.8 5.5c3.2 2.7 7.4 1.2 10.5 3.2-1.1 2.5-1.4 2.7-3.8 2.2l-6.8-1.5 1.3 5.8c.2 1.2.7 2.4 1 3.7.3 1.6-.3 2.6-2.4 2.9l-3.3-12.4-4 2.8c-1.5 1-3 2-4.6 2.7-1 .5-2 .8-3-.7l8-5.5c-3.7-2.5-9-1.8-11.7-5.8 1-2 2.3-1.5 3.7-.7 2.7 1.4 5.5 2.3 8.5 2.5h1.7z" fill="#A3E7FF"/>
  <path opacity=".3" d="M462.4 88.3l2.5-8.4 8.3 4.3 3.4 1.8.9.5 3.7 2 14.4 7.5-.7 2.4-32.5-10.1zm787-18.8a23 23 0 0025.5-37.5l-25.4 27.9-5.5 6a22.8 22.8 0 005.3 3.6z" fill="#A3E7FF"/>
  <path opacity=".3" fill-rule="evenodd" clip-rule="evenodd" d="M1119 210.2a18 18 0 01-10.8-4.6 15 15 0 01-4.4-5.1c-1-2.1-1.2-4.3-.8-6.6a6.6 6.6 0 012-3.5c.8-.7 1.5-.8 2.3 0 .6.3 1 .9 1.4 1.4l3.8 5.2c.6.7 1.2 1.5 2 2.2.5.4 1.2.7 1.8 1 1-.7.7-1.5.4-2.3l-2.3-6.4c-.6-1.5-.7-3-.4-4.6 0-.5.2-1 .4-1.4.9-1.7 2.7-2.1 4.1-.9.8.7 1.5 1.5 2.1 2.3l5.5 7c.4.6 1 1.1 1.6 1.5.9.6 1.6.3 2.1-.6.5-.9.6-1.8.4-2.7l-1.5-7.4c-.2-1.2-.3-2.5-.1-3.7.2-2.6 2.1-3.4 4.4-2.1 1.4.8 2.3 2 3.2 3.4l2.8 5c.8 1.3.8 1.3 2 1.8.8-.9 1.1-2 1-3.1l-.5-4.9c-.2-1.9.2-3.6 1.5-5 1.1-1.3 2-1.4 3.3-.5 1.6 1 2.5 2.7 3.5 4.2 1.4 2.4 2.5 5 3 7.7a11 11 0 01-.3 4.7 19 19 0 01-3.5 7.6l-.2.4s-5 4-13.4 7c-8.3 3-15.6 3-16.5 3z" fill="#A3E7FF"/>
  <path d="M1187 200.6c9.7-6.9 86.2-47.9 160.6 27.3 51.7 51.7 58.5 206 13.6 269.1-66.4 81.6-487.9 58.1-581.8 11.8-64.3-32-99.3-133.4-27.6-212.6C798.3 245 850.4 172 971 172c46.5 0 82.2 25 100 34.4 39.7 21 78.7 20.7 116-5.8z" fill="url(#Illustration__paint0_radial)"/>
  <path opacity=".3" fill-rule="evenodd" clip-rule="evenodd" d="M868 176.4l40-13.4v5.8L868 182v-5.6z" fill="#A3E7FF"/>
  <path opacity=".3" d="M681.1 399.5v.5l-.1.4a76.3 76.3 0 00-.3 2.5 111.7 111.7 0 00.8 25.7l.6 3 .3 1.6.3 1.5 1.7 5.7 1 2.6 1.1 2.4 1.2 2.2 1.2 2a683.1 683.1 0 002.4 3.3l1.2 1.3 1 1.1 1.9 1.6 1.6 1.3 3-6.2-1.2-1.5-1.4-1.8-.7-1.2c-.3-.4-.6-.8-.8-1.4l-.8-1.5-.8-1.8-.8-1.9-.7-2-.6-2.3-.5-2.4-.8-5-.1-1.3v-1.3c-.2-.9-.2-1.8-.2-2.7a80.6 80.6 0 010-5.2 97.1 97.1 0 01.7-9.4 93.8 93.8 0 011-6.6 50.7 50.7 0 01.5-2v-.2l-11.7-1.1zm681.4-177.7l-8.3 4.4 6.2 7.9 2.6 3.2.7.8 2.8 3.6 10.9 13.6 2.3-1.2-17.2-32.3z" fill="#A3E7FF"/>
  <path d="M1035.8 377.4c1-4.6-1.8-9.2-6.4-10.2a8.5 8.5 0 00-10.2 6.4 8.5 8.5 0 0016.6 3.8z" fill="#0A3B5F"/>
  <path d="M1060.6 472.8L1071 456c-15.2-9.5-26.4-17.4-31.8-32.6v-.1a94.6 94.6 0 01-2.8-42.8l-19.2-4.4c-3.3 15-1.8 39.7 3.5 54 7.5 21 22.5 31.7 39.9 42.6z" fill="#5FCE8C"/>
  <path d="M1152 368.8a8.9 8.9 0 00-17.6 3 8.9 8.9 0 0010.2 7.3 8.9 8.9 0 007.3-10.3z" fill="#0A3B5F"/>
  <path d="M1101.3 469c18.7-10.3 35-20.6 44-42 6.2-14 11.6-36.5 8.9-52.8l-20.3 3.3c1.9 11.1-2.3 29.7-7.4 41.3v.1c-6.6 15.5-18.7 23-35.1 32l9.9 18z" fill="#5FCE8C"/>
  <path d="M1042.7 479s17.3-36.4 39.5-36.4c22.1 0 34.5 24.4 36.3 36.4 1.7 12 2 22.4-9.6 29.7-11.5 7.3-76.3-7.8-66.2-29.7z" fill="#5FCE8C"/>
  <path fill-rule="evenodd" clip-rule="evenodd" d="M1068 404.5l1.4.2c.5 0 1 .1 1.3.5.2.2.3.5.3.8v1.8c-.5 2.4 1.3 4 3.2 4.5 1.2.3 2.2-.1 3.3-.5 1-.4 1.9-.7 2.9-.7.5 0 1 .3 1.3.8l1 2.3a8.2 8.2 0 002.5 3.3c.7.5 1.2 1.2 2 1.5l2 .5 1.2.3c1.7.3 3-.5 4-1.6a7 7 0 001.7-3l.3-1.8c0-.3.2-.5.3-.7l.5 4.2c.2 1.9.3 3.7.3 5.6l.1 3.8c.1 1.8 0 3.6-.3 5.3l-1.2 5.5a14.7 14.7 0 01-8.3 10c-2.1 1-4.3 1.5-6.7 1.6h-2.6a20.4 20.4 0 01-11.8-3 11.9 11.9 0 01-4.7-5.5c-.7-1.5-1.2-3.1-1.3-4.9l-.2-2.4c0-1-.2-2.1-.1-3.2l.6-4.6c.2-1.6.7-3.2 1.4-4.8.3-.7.4-1.4-.2-2.1l-.4-.5c-.6-1-.8-2-.7-3.2a43.5 43.5 0 015-10.5l1.8.5z" fill="#127CCB"/>
  <path d="M1065 433.1a8 8 0 01-3.1 0 .5.5 0 01-.5-.6.5.5 0 01.7-.4c1.9.3 3.4 0 4.4-.8.8-.8 1.3-1.8 1.3-3a.5.5 0 01.5-.6c.3 0 .5.3.6.6 0 1.5-.6 2.9-1.7 3.8a5 5 0 01-2.2 1z" fill="#fff"/>
  <path fill-rule="evenodd" clip-rule="evenodd" d="M1066.2 404l1.7.5 1.5.2c.5 0 1 .1 1.3.5.2.2.3.5.3.8v1.8c-.5 2.4 1.3 4 3.2 4.5 1.2.3 2.2-.1 3.3-.5 1-.4 1.9-.7 2.9-.6.5 0 1 .2 1.3.7l1 2.3a8.2 8.2 0 002.5 3.3c.7.5 1.2 1.2 2 1.5l2 .5 1.2.3c1.7.3 3-.5 4-1.6a7 7 0 001.7-3l.3-1.8c0-.3.2-.5.3-.7l1.7-.3c1 0 2 0 3-.3 2.3-.4 4-1.6 4.7-3.9.4-1.3 0-2.6-.7-3.7a5 5 0 00-2-1.6l-2-1a4.5 4.5 0 01-1-.7c-.3-.3-.4-.6-.1-1l1.1-1.6c1.2-1.4 5.4-8.6 5.3-10.4-.1-2-1-3.4-3-4.2-1.4-.6-3-1-4.6-.9-2.1.1-4 .7-5.7 2.2a4 4 0 01-2.2 1c-2.7 0-6.7-5-10.4-5.6-2.4-.4-5.7-.8-8.7 2.2-3.3 3.4-2.8 6.5-2.6 7.9.1 1-.2 1.7-.9 2.2l-2 1.8a8.4 8.4 0 00-2.3 5.5 4 4 0 001.7 3.5l.2.2z" fill="#0A3B5F"/>
  <path fill-rule="evenodd" clip-rule="evenodd" d="M1066.5 415a1.2 1.2 0 01.4-2c1-.5 2 0 2 1.2.1.3 0 .6-.2.8-.5.5-1.7.4-2.2 0z" fill="#fff"/>
  <path fill-rule="evenodd" clip-rule="evenodd" d="M1145.7 315.6c.6 2.4 1.4 4.9 1.8 7.4 1.7 8.6 2.4 17.3 2.8 26.1 0 2.1.2 4.3.5 6.4.2 1.8-.1 3.4-1.3 5.1l-2.5.5-35.9 3c-11 .8-22 1.4-33 2-8.8.4-17.7 1-26.6 1-9.3.2-18.5-.2-27.7-.4-1 0-1.9-.3-3-.5l.6-2.1c3-7.6 6-15.2 9.2-22.7 3-7.2 7.4-14 12.6-20.6 1 1.3 2.3 2.6 3 4 1.2 2.6 3.6 4.1 7.3 4.3 3.7.2 6.3-1.1 8-3.7 1.4-2 2.9-3.8 4.4-5.7.7-1 1.6-2 3.2-2s2.2 1 2.6 2l1.6 4c.6 1.5 1 3 2 4.3 1.7 2.5 5.1 2.8 8.1.7 1.2-.8 2.1-1.9 3-3 1-1.2 2-2.6 2.9-4 1.2-1.6 2.7-3 5.2-4 .6 1 1.3 1.8 1.7 2.7.8 1.5 1.2 3.1 2 4.7.6 1.2 1.3 2.4 2.2 3.5 1.2 1.3 2.6 1.5 4.8 1 2.2-.6 4-1.7 5.3-3.2 1.2-1.4 2.2-3 3.3-4.5 1-1.4 1.8-3 3-4.3 1.4-1.7 3.3-1.6 4.3.1.5 1 .7 2 1.1 3 .6 1.4 1 2.8 1.8 4.2 2 3.4 6.6 4.3 11 2 1.7-1 2.9-2.3 4.3-3.4 1.2-1.1 1.8-2.5 3.4-3.5 1.3-.8 1.6-2.5 2.4-3.8l.6-.6z" fill="#F19020"/>
  <path fill-rule="evenodd" clip-rule="evenodd" d="M1145.7 315.6l-.6.6c-.8 1.3-1.1 3-2.4 3.8-1.6 1-2.2 2.4-3.4 3.5-1.4 1.1-2.6 2.5-4.3 3.3-4.4 2.4-9 1.5-11-2-.8-1.3-1.2-2.7-1.8-4.2l-1.1-2.9c-1-1.7-3-1.8-4.3 0-1.2 1.3-2 2.8-3 4.2-1 1.6-2 3-3.3 4.5-1.3 1.5-3 2.6-5.3 3.1-2.2.6-3.6.4-4.8-1-1-1-1.7-2.2-2.3-3.4-.7-1.6-1.1-3.2-1.9-4.7-.4-1-1.1-1.8-1.7-2.7-2.5 1-4 2.4-5.2 4-1 1.4-1.8 2.8-3 4-.8 1.1-1.7 2.2-2.9 3-3 2.1-6.4 1.8-8.2-.7-.9-1.3-1.3-2.8-1.9-4.2l-1.6-4c-.4-1-1-2-2.6-2s-2.5 1-3.2 1.9c-1.5 1.9-3 3.7-4.4 5.7-1.7 2.6-4.3 3.9-8 3.7-3.8-.2-6-1.7-7.4-4.3-.7-1.4-1.9-2.7-2.9-4 1.6-2 3-4.1 4.7-6.1a73 73 0 0143.4-24.1c5.4-1.1 11-2 16.5-2.1 9.5-.2 17.2 2.9 23.6 7.7 4.6 3.5 7.8 7.7 10.8 12 1.5 2.2 3.4 4.3 3.5 7v.4z" fill="#0A3B5F"/>
  <path d="M1291.5 349l-.2.7 11.2 2.1.1-.7-11.1-2.1z" fill="#5FCE8C"/>
  <path d="M1291.3 349.7l.2-.7-94.7-18v.8l94.5 18z" fill="#57A376"/>
  <path d="M1291.3 349.7l-.6 3-94.1-17.5.1-3.4v-.8l-16-3-4.2 23.4 122.4 22.8 3.6-22.4-11.2-2zM1195 346l-8.4-1.5.6-2.8 8.3 1.5-.5 2.8zm19.5 3.5l-8.4-1.5.5-2.8 8.4 1.5-.5 2.8zm19.5 3.5l-8.4-1.5.5-2.8 8.4 1.5-.5 2.8zm19.4 3.5l-8.3-1.5.5-2.8 8.3 1.5-.5 2.8zm19.5 3.5l-8.3-1.5.5-2.8 8.3 1.5-.5 2.8zm19.5 3.5l-8.3-1.5.5-2.8 8.3 1.5-.5 2.8z" fill="#5FCE8C"/>
  <path d="M1186.5 344.4l8.4 1.5.5-2.8-8.4-1.5-.5 2.8zm19.5 3.5l8.4 1.5.5-2.8-8.4-1.5-.5 2.8zm19.5 3.5l8.4 1.5.5-2.8-8.4-1.5-.5 2.8zm58.4 10.5l8.4 1.5.5-2.8-8.3-1.5-.5 2.8zm-19.5-3.5l8.4 1.5.5-2.8-8.3-1.5-.5 2.8zM1245 355l8.3 1.5.5-2.8-8.3-1.5-.5 2.8z" fill="#fff"/>
  <path d="M1196.6 335.2l94.1 17.5.6-3-94.6-18-.1 3.5z" fill="#57A376"/>
  <path d="M1193 455.6s8.5-32.5 32.9-35c24.3-2.3 45.6 27.7 41.1 49.7-4.5 22-60.8 32.8-71 22.4-10.2-10.3-4.7-30.8-3-37.1z" fill="#FBAF17"/>
  <path d="M1213.9 418.4c1.1 1.7 2.5 3.2 4.5 4.2a23.2 23.2 0 0013 2.3c2-.3 4-1 5.7-1.8 1.3-.7 2.5-1.5 3.6-2.5l1.5-1.1-.6-1v-.1c-.1-.4-.3-.7-.7-.7h-2.3c-1 0-1.9-.1-2.5-1-.5-.5-.8-1.2-1-1.9 0-.3-.3-.5-.5-.8-.3-.5-1-.4-1.5-.5-.8-.1-1.5-.4-2.2-.9-.7-.5-1.3-1-1.4-1.8-.3-1.4 0-2.8.6-4 .5-1.2 1.4-2.3 1.5-3.6l.1-.2c.6-1.4.7-2.8.3-4.3a7.9 7.9 0 00-3.1-4.3l-2.3-1.3-1.6-.9a9.9 9.9 0 01-3.8-2.8l-1.6-2.2-.3-1.4-.5 2.4c-2 3-5.8 6-8 9-.7 1-1.3 2-1.2 3.3 0 1.2.7 2.2 2 2.9.3.2.4.4.4.8a38.5 38.5 0 00-.7 6.6c0 2.7.9 5.3 2.6 7.6zm6.5-21a1 1 0 01-.6-.5c-.4-1.1.3-2 1.5-2 .8 0 1.4.9 1 1.7-.2.6-1.3 1.1-2 .9zm-7.5 16.2a.5.5 0 01.5-.4c7 .3 8-4.2 8.1-4.4a.5.5 0 011 .2s-1 4-6.2 5c-.9 0-1.9.2-3 .1a.5.5 0 01-.4-.5z" fill="#F19020"/>
  <path d="M1219.8 396.9c-.4-1.1.3-2 1.5-2 .8 0 1.4.9 1 1.7-.2.6-1.3 1.1-2 .9a1 1 0 01-.5-.6z" fill="#0A3B5F"/>
  <path d="M1219.8 396.9c-.4-1.1.3-2 1.5-2 .8 0 1.4.9 1 1.7-.2.6-1.3 1.1-2 .9a1 1 0 01-.5-.6z" fill="#fff"/>
  <path d="M1241.5 418.4c0-.4-.2-.7-.7-.7h-2.2c-1 0-1.9-.1-2.5-1a6 6 0 01-1-1.9c0-.3-.3-.5-.5-.8-.3-.5-1-.4-1.5-.5-.8-.1-1.5-.4-2.2-.9-.7-.5-1.3-1-1.4-1.8-.3-1.4 0-2.8.6-4 .5-1.2 1.4-2.3 1.5-3.6l.1-.2c.6-1.4.7-2.8.3-4.3a8 8 0 00-3.1-4.3l-2.3-1.3-1.6-.9a9.7 9.7 0 01-3.8-2.8l-1.6-2.2-.3-1.3c-.1-.6-.3-1.1-.3-1.7v-.4c8.5 2.6 24.7 7.3 27 7.5.4 0 .8-.1 1-.3v.8c.3 1.2 3 4.6 3.4 5.2l3 4.5c.9 1.4 1.4 3 1.7 4.6.2 1.4.3 7.5-3 12.6a6 6 0 01-3 2.7c-.5.2-1 .2-1.6.2-1.1 0-2.2-.1-3.3-.5a4.4 4.4 0 01-2-1.6l-.6-1v-.1z" fill="#0A3B5F"/>
  <path d="M1246 391.3a371.2 371.2 0 01-32.4-9l-5-1.6c-1.8-.5-1.8-3.3.7-2.7a71 71 0 015.9 1.7l2 .7 2.2.8.1-.4c.2-1.6 1-3 2-4.3a13 13 0 015.3-4.2c1.5-.7 3-1 4.7-1.2h3.4c0 .5.3 1 .6 1.3.7.7 2 .8 2.8-.2l.3-.8c1.6.3 3 1 4.2 2 1.2 1 2.3 2.1 3.2 3.5.8 1.2 1.4 2.6 1.6 4.1a54 54 0 01.4 6.1v2.3l-.4 1.1c-.2.2-.3.4-.6.5-.2.2-.6.3-1 .3z" fill="#FBAF17"/>
  <path d="M1235.5 372.4a1.9 1.9 0 01-.6-1.3 2 2 0 011-1.7c.6-.3 1.2-.3 1.8 0 .6.4 1 1 1 1.6v.4l-.4.8c-.8 1-2 .9-2.8.2z" fill="#5FCE8C"/>
  <path d="M1213.4 413.2c7 .3 8-4.2 8.1-4.4a.5.5 0 011 .2s-1 4-6.2 5c-.9 0-1.9.2-3 .1a.5.5 0 01-.4-.5.5.5 0 01.5-.4z" fill="#fff"/>
  <path d="M1194.3 364a7.3 7.3 0 00-3.5-9.7c-3.7-1.8-8.1-.2-9.8 3.5a7.3 7.3 0 003.5 9.8 7.3 7.3 0 009.8-3.6z" fill="#F19020"/>
  <path d="M1217.7 453.8l-7.9-1.7c-10.5-2.3-20.3-16-25.8-28a83.3 83.3 0 01-6.8-51.7l1.7-8 15.8 3.5-1.7 7.9a67.1 67.1 0 005.4 41.2c6 13.2 13.1 18.9 14.9 19.3l7.9 1.8-3.5 15.7z" fill="#FBAF17"/>
  <path d="M1279.5 379.8a7.3 7.3 0 016.8-7.9 7.3 7.3 0 111 14.7 7.3 7.3 0 01-7.8-6.8z" fill="#F19020"/>
  <path d="M1236.3 456.7c-.9 0-1.7 0-2.6-.2l-8-1.2 2.5-16 8 1.3c1.7.2 10.4-2.6 20.8-12.7 6.2-6.1 17.1-19 19.9-36.6l1.2-8 16 2.5-1.3 8a83.3 83.3 0 01-25 46c-8.7 8.4-21.3 16.9-31.5 16.9z" fill="#FBAF17"/>
  <path d="M1216.1 331l-4.8-.9-7.3-1.3c-1.9-.3-3.7-.5-5.5-.9-.7-.1-1.3-.5-2-.7l.4-2.6.6-1.9 1.3-4.6c.3-.8.9-1.5 2-1.4 1.7.3 3.5.4 5.2.8 2.4.5 4.8 1.3 7.4 1.2 1.2 0 2.4 0 3.2-1l4.2-5.3c1.9-2.6 4.2-4.7 7-6a59 59 0 0111.7-3.8c2.5-.6 5-.3 7.5-.1h1l6 .7.4.2 3.6.9c3.7 1 7.2 2.5 10.4 4.7a17 17 0 017 10.7l1.3 7.5c.1 1.1.7 1.8 1.8 2l13.1 2.1 1.5.4c1.5.5 1.8 1 2 2.3v1.5c0 .8-.2 1.5-.3 2.2l-.6 2c-.3 1.5-1 2.2-3 2l-19.1-1.7-16-1-1.5-.5-5.6-1.1a590.2 590.2 0 00-7-1.3l-5-.8-.4-.1c-1.7-.3-3.2-1-5-.6l-15.5-3.5z" fill="#F19020"/>
  <path fill-rule="evenodd" clip-rule="evenodd" d="M1263.5 346l-2-.3-1.2-.4a5.3 5.3 0 01-3.2-3.5c-.2-.6-.5-1.3-.6-2a8 8 0 013.6-7.6c1.8-1.4 3.8-1.6 6-1 3.4 1 5 3.2 5.6 4.8.2 1 .5 2.8.4 3.9-.5 4.7-6.3 6.2-8.6 6zm-32-11.6c-.8 2-3 3.1-5.2 3.8-2.7.8-7.1-.1-8.6-2.7a9.4 9.4 0 01-1-3c-.5-2.5 1.2-6.8 4-8 1.5-.6 3.2-.7 4.8-1 1.7-.2 3.4.2 4.6 1.5 1.6 1.8 3 3.6 2.3 6.2-.3 1.1-.2 1.1-1 3.2z" fill="#FBAF17"/>
  <path fill-rule="evenodd" clip-rule="evenodd" d="M1206.2 323.4a2 2 0 00-1.8-2.3 2 2 0 00-2.3 1.8 2 2 0 104.1.5z" fill="#127CCB"/>
  <path d="M1230.7 307.5l-3.7-.7a20 20 0 00-6.2 5.6l-2.5 3.1 10.4 2 2-10zm42 5.8c1.3 1.8 2.2 4 2.7 6.4a116.2 116.2 0 011 6l-9.5-1.5 1.6-11.4 4.2.5zm-38-5l12.8 1.5-1.1 11-13.4-2 1.7-10.6zm16.4 1.7l12.8 1.6-1.2 11-13.3-2 1.7-10.6z" fill="#0A3B5F"/>
  <path d="M996.5 339.2l-4 .4.8 6.4-68.7 7.5-.7-6.4-4.5.5.7 6.4-55.7 6-.7-6.3-5.7.6.7 6.4-55.6 6-.7-6.4-4.4.5c1.2 16.4 19.6 29.8 36.2 19.2 8.2-5.3 15.6-3.9 23 1.4a95 95 0 002.9 2c9.4 6.3 19.4 7 29.7 2.7 3.8-1.5 7.4-3.6 11-5.6 9.5-5.2 19.6-8 30.4-7.6 7 .3 13.7-1 19.8-4.3 8-4.1 16.6-5.3 25.4-4.9 4 .2 8.2.5 12.3.5 6.4 0 11.3-3.4 13-8.9 1.5-5.1-.9-13.2-5.2-16z" fill="#5FCE8C"/>
  <path d="M858.7 360.7l-.7-6.4-55.6 6 .7 6.4 55.6-6zm61.4-6.7l-.7-6.4-55.7 6 .7 6.5 55.7-6.1zm73.2-8l-.7-6.4-68.7 7.5.7 6.4 68.7-7.5z" fill="#50AD75"/>
  <path d="M904.8 433c-24.2 2.8-30.2 30.7-30.2 30.7s-8.5 20.6 0 26.7c12.6 9.3 68.2 0 69-16.3.6-11-19.4-43.5-38.8-41.2z" fill="#127CCB"/>
  <path d="M900.5 427.2c-2.1 1.4-4.4 2.4-6.7 3.4l.5.5 2 1.6c1 .8 2 1.5 3.2 2 1.5.8 3.1 1.4 4.8 1.6 2.6.2 5.2-.1 7.6-1 1.3-.3 2.5-.8 3.6-1.5a11 11 0 003.7-3.8c1.4-2.2 2-4.5 2-7a36.8 36.8 0 00-.9-5.9c0-.4 0-.5.4-.7a3 3 0 001.5-2.7c0-1.1-.5-2.1-1.1-3-2-2.5-3.6-5.1-5.3-7.7l-1.1-1.7c-2.7.8-4.9 2.2-6.3 4.6a11 11 0 00-1.5 7.6 8 8 0 002.5 5c.6.5.6 1 .1 1.6a18.8 18.8 0 01-4.2 4l-4.8 3.1z" fill="#FBAF17"/>
  <path d="M886.5 413.2v-.2l.4-.1 4-1.1a31.3 31.3 0 005.6-2.6c2.3-1.4 4.7-2.7 7-4.2 2.4-1.6 4.7-3.5 7-5.2l1.8-1.5 2.4 3c-2.7.8-4.9 2.2-6.3 4.6a11 11 0 00-1.5 7.6 8 8 0 002.5 5c.6.5.6 1 .1 1.6a18.8 18.8 0 01-4.2 4l-4.8 3c-2.1 1.5-4.4 2.5-6.7 3.5l-.1.1-.9.4-2.7 1c-.8.5-1.5.1-1.8-.6-.7-1.7-1.4-3.4-1.8-5.2-.4-1.5-.5-3.1-.6-4.7-.2-2.8 0-5.6.6-8.4z" fill="#F19020"/>
  <path d="M903.5 405c-2.3 1.5-4.7 2.8-7 4.2a31.3 31.3 0 01-5.7 2.6l-3.9 1-.4.2h-.1c-1.6 0-2.5-1.2-2.4-2.8a42.7 42.7 0 014.7-14.9 9.7 9.7 0 013-3.3l-1.2-1a.8.8 0 111-1.3l1.8 1.5c1-.4 2-.6 3.3-.7a22.3 22.3 0 0115.8 5l.5.8c.3.6.2 1.1-.3 1.6l-.3.4-1.8 1.5c-2.3 1.7-4.6 3.6-7 5.2z" fill="#0A3B5F"/>
  <path d="M920.8 423.1a.3.3 0 00.1-.2.3.3 0 00-.3-.4 2.7 2.7 0 01-2.9-2.5.3.3 0 00-.3-.3.3.3 0 00-.4.3 3.4 3.4 0 003.6 3.2.3.3 0 00.2-.1z" fill="#fff"/>
  <path fill-rule="evenodd" clip-rule="evenodd" d="M914.9 408.3a1 1 0 00-1.8-.4c-.7.7-.6 1.7.3 2.2h.7c.6-.2 1-1.2.8-1.8z" fill="#fff"/>
  <path d="M956.2 371.7a6.3 6.3 0 015.6-6.9 6.3 6.3 0 111.3 12.5 6.3 6.3 0 01-7-5.6z" fill="#0A3B5F"/>
  <path d="M925 452.2l-7-15c13.6-6.3 23.8-11.8 29.8-24a79.6 79.6 0 006.8-35.5l16.5-1.6a95.2 95.2 0 01-8.5 44.6c-8.4 16.8-22 24.2-37.7 31.5z" fill="#127CCB"/>
  <path d="M851.8 382.8a6.3 6.3 0 00-6.6-6.1 6.3 6.3 0 10.5 12.6c3.5-.2 6.2-3 6-6.5z" fill="#0A3B5F"/>
  <path d="M893.6 458.3l5-15.8c-14.5-4.5-25.3-8.5-33-19.7v-.1a79.6 79.6 0 01-11.5-34.2l-16.5.6c.5 12.9 7 32.6 14.4 43 10.7 15.6 25.2 21 41.6 26.2z" fill="#127CCB"/>
  <path d="M1293.7 457.7v-.1l-5.4 13.7 4.7 1.9 5.5-14h-.4c-1.4-.5-2.9-.6-4.4-1.5z" fill="#5FCE8C"/>
  <path d="M1317.6 419.6c-.8-.6-6.2-5.5-13.4-3.5-2.5.7-4.7 2-6.3 4-1.6 2.1-2.9 4.3-3.4 6.8-.6 2.4 0 5.3 1.7 7.8-2.2.7-4.1 2-5.6 3.8-1.6 2-2.9 4.3-3.4 6.8-1 4 1.6 9.4 6.4 12.3h.1c1.5 1 3 1.1 4.4 1.5h.4c4.7 1.3 9.1-.2 12.2-4.2l2-3c1-1.8 1.6-3.6 1.4-5.6.2-1.8-.5-4-1.5-5.7 2-.7 3.9-2 5.4-4l2-3.1c1-1.7 1.6-3.6 1.4-5.5.3-2.9-1.5-6.6-3.8-8.4z" fill="#127CCB"/>
  <path fill-rule="evenodd" clip-rule="evenodd" d="M1142.6 463.2c-1-2.7-1.3-5.6-2-8.5l.1-1.6c.2-1 .7-1.9 1.8-2.3 1.2-.3 2.2 0 3 1 1 1 2 2.1 3.1 3.5l1-3c.6-1.5 1-3.3 3-3.5 1.7-.3 2.7 1 3.7 2.3l2.7 3.8c.4-1.7.5-3 1-4.3.4-1.4 1-2.9 2-4 1-1.4 2.4-1.3 3.9-.3.4.3.8.6 1 1 3 4 4.1 8.5 3 13.4-.5 2.3-1.8 4-3.6 5.5-1.2 1-4.6 3-7.4 3.7-6.1 1.5-13.9-.2-16.3-6.7z" fill="#F19020"/>
  <path fill-rule="evenodd" clip-rule="evenodd" d="M1000.6 270.6c2.8 4.2 6.8 7.3 10.4 11.1l-2 .6-15.6 3.1-2 1c6.7 3.9 13.8 6 20.4 9.4l-5.2 7.7-2.2 3.3c-.8 1.2-.7 1.8.2 2.9.8 1 1.4 1.2 2.8.6 1-.4 1.9-.8 2.8-1.4l24.1-15.2 1.4-1c.8-.4 1-1 1-1.9L1035 280c-.2-1-.9-1.1-1.6-1.4l-9.5-2.6-20.6-6c-1-.2-1.9-.8-2.8.6z" fill="#127CCB"/>
  <path fill-rule="evenodd" clip-rule="evenodd" d="M1042.8 276.5l-.1 3.7c2-.4 4-.3 5.8.6 1.1.6 1.9 1.5 1.9 2.8 0 1.4-.8 2.4-2 2.9-1.8.7-3.5 1.5-5.5 1.5.3 1.5.5 3 1 4.3.3 1 .9 1.4 2.2 1.3l8-.8 3.3-.5-.2-1.6c-.2-2.7 1-4.9 2.5-7a7.2 7.2 0 017-2.9c2.7.3 4.5 2.1 6 4 1 1.3 1.9 2.8 2 4.5l24.7-4.2c4-.7 8-1.7 12-2.5-.7-4.3.7-7.9 4-10.5 2.8-2 5.7-2.2 8.9-.8 3.2 1.5 5.3 4 6.8 7l7.8-1.8c3-.6 3.5-2.6 3-5a7.7 7.7 0 00-.5-1.6l-5.4-12.3a18 18 0 00-2.2-3.5c-1.6-2-3.7-3.5-6.2-4.1-3-.8-6-1.2-9.2-1-5.9.6-11.7 1.6-17.6 2.6l-12 1.9a5728.2 5728.2 0 00-30.7 5.4c-1.7.3-3.5.7-5.1 1.2-2.9.8-5.4 2-7 4.7h.5c3.8-.3 7.5-.8 11.2-1 1.5-.2 3 0 4.3.2 1.3.2 2.5.8 3 2 1.1 2 1.6 4.3 1.6 6.6 0 .7-.2 1.2-1 1.3l-1.3.4-5 .7-12.8 1.4-3.7.1z" fill="#FBAF17"/>
  <path fill-rule="evenodd" clip-rule="evenodd" d="M1131.1 278.4c-1.5-3.1-3.6-5.6-6.9-7a8.1 8.1 0 00-8.7.7 10.4 10.4 0 00-4.2 10.5c1.2 1.5 2.2 3.1 3.5 4.5 2.9 3 6.4 4 10.5 3.1a8.4 8.4 0 006.3-8.5c0-1.1-.3-2.2-.5-3.3z" fill="#5FCE8C"/>
  <path fill-rule="evenodd" clip-rule="evenodd" d="M1042.8 276.5l3.7-.1 12.7-1.4 5-.7c.5 0 1-.3 1.4-.4.8 0 1-.6 1-1.3 0-2.3-.5-4.6-1.5-6.7-.6-1.1-1.8-1.7-3-1.9-1.5-.2-3-.4-4.3-.3-3.8.3-7.5.8-11.3 1.2l-.6-.1a13 13 0 00-2.5 6.1l-.6 5.6z" fill="#0A3B5F"/>
  <path fill-rule="evenodd" clip-rule="evenodd" d="M1074.6 289.3c0-1.7-.9-3.2-1.9-4.4-1.5-2-3.3-3.8-6-4-2.8-.4-5.2.5-7 2.8-1.5 2.1-2.8 4.3-2.5 7l.2 1.6c1.5 1.4 2.9 3 4.5 4.3 2.7 2.2 7 2 9.8 0a7 7 0 002.6-4.7l.3-2.6z" fill="#5FCE8C"/>
  <path fill-rule="evenodd" clip-rule="evenodd" d="M1043 288c1.9 0 3.6-.8 5.4-1.5 1.2-.5 2-1.5 2-2.9 0-1.3-.8-2.2-1.9-2.8-1.9-1-3.8-1-5.8-.6l.2 7.8z" fill="#127CCB"/>
  <path fill-rule="evenodd" clip-rule="evenodd" d="M833.5 434.1l-1.4-1.4-4.3-4.1c-2-1.7-4-3.2-5.7-5l-.4-.5 6.2-2c1.2-.5 1.3-.9.4-1.7l-1.4-1.5c-1.4-1.3-2.8-2.8-4.3-4-1.9-1.7-4-3.3-5.6-5.1-1.5-1.6-3.1-3-4.9-4.2-.4-.3-.7-.3-1.1-.3a2 2 0 00-1.8 1.3l-.4 1c-.4 1.4-.6 2.7-.8 4l-1 7.3-.7 5.6-.6 4.1v.8l4-1.1 3.4-1-1 6.4-.7 5.6-.5 4v.9l4-1.2 3.4-1-1 6.4-.7 5.6-.5 4v.9l4-1.1 5.5-1.8 4.5-1.7 1.9-.7 6.3-2.1c1.2-.4 1.3-.8.4-1.7l-1.4-1.4c-1.5-1.4-2.9-2.8-4.4-4-1.8-1.8-3.9-3.3-5.6-5.1l-.4-.5 6.2-2c1.2-.4 1.3-.8.4-1.7z" fill="#F19020"/>
  <path d="M831 453.1l-6.1 2.2 5 14.5 6.2-2.1-5-14.6z" fill="#0A3B5F"/>
  <path fill-rule="evenodd" clip-rule="evenodd" d="M903.7 265.8l-3.3.2-6.5-1.5c-.8-.2-1.7-.5-2.4-1-3.1-1.6-5.5-3.9-6.2-7.4-.5-2.2-.2-4.4.3-6.5.8-3.6 2.6-6.6 5-9.3.6-.8 6.8-3.8 7.3-3.8 5.6-.1 14.4 5 16 12.8.9 3.7.3 7-2 10-1.6 2-3.5 3.8-5.6 5.2-.8.6-1.7.9-2.6 1.3z" fill="#FBAF17"/>
  <path fill-rule="evenodd" clip-rule="evenodd" d="M802.8 315.8l-3.5.2c-1.6 0-1.7-.2-1.8-1.8-.1-1.2.3-2.2.9-3.1 3.8-5.9 7.4-11.9 11.4-17.6 3.4-4.8 7.2-9.3 10.8-13.8 2.3-2.8 4.7-5.6 7.2-8.2 4-4.4 8.6-8 13.8-10.8 4.7-2.5 9.7-4.3 15.1-4.2 3.9 0 7.7.7 11.4 2 4.5 1.5 8.5 4 11.8 7.3 2 2.1 3.5 4.5 5.2 6.8l4.8 7.2a8 8 0 007 3.6c1.4 0 2.7-1 3.7-2 2-1.8 3.7-3.7 5.8-5.3 4-3.2 8.6-4 13.6-3.6 3.6.2 7 1.4 10.2 3.3 4.1 2.6 6.6 6.3 8 11l.6 2.1c.8 2.9-.3 5-3.2 5.6-2.4.6-4.9 1-7.3 1.5a585.8 585.8 0 01-10.7 1.9l-8.1 1.2-8.3 1.4-8.1 1.2-9.8 1.5-8.3 1.2-12.1 2-7.6 1.1-10.5 1.8-7.1 1.2-10.9 1.9-7.2 1.2-9 1.4-7.8 1a3 3 0 000-.2z" fill="#0A3B5F"/>
  <path fill-rule="evenodd" clip-rule="evenodd" d="M957 263c-3.3-.4-7.5 1.3-10.4 4.8l-.8 1-1.8-1.6.7-.9c3.4-4 8.4-6.1 12.7-5.6a8.7 8.7 0 017.6 7c1-.7 2-1.4 3-1.9 2.3-1 4.8-1.4 7.3-1.2 2.4.2 4.9 1 6.6 2.6 1.8 1.6 2.8 4 2.6 7.2l-.1 1.2-2.3-.2v-1.2c.3-2.5-.5-4.2-1.8-5.3a8.6 8.6 0 00-5.2-2c-2-.1-4.2.2-6 1-1.9.9-3.2 2-3.8 3.4l-2.2-.4c0-2.6-.8-4.5-1.8-5.7-1-1.2-2.5-2-4.2-2.2z" fill="#F19020"/>
  <path d="M990.3 259.8c0-4 3.1-9 7-10.3 2.4-.8 5.2.6 7 2 2 1.8 3.5 4.3 4 6.9.3 1.4 2.2.9 2.3-.3.7-5.3 4.1-10 9.5-11.3 5.7-1.3 10.4 3 12.7 7.9.6 1.4 2.6.2 2-1.2-2.7-6-8.3-10.2-15-9-6.7 1.2-10.8 7.3-11.5 13.6l2.3-.3c-1.2-5.8-7-11.7-13.3-10.7-2.8.4-5 2.8-6.6 5-1.6 2.2-2.7 5-2.8 7.7 0 1.5 2.3 1.5 2.4 0z" fill="#F19020"/>
  <path fill-rule="evenodd" clip-rule="evenodd" d="M1167.2 242.6c.9 0 1.7-.2 2.4 0 8 2 16.4 2 24.6 2.7l25.8 2.2 25.4 2c7.4.7 15 1.3 22.4 1.8l19.4 1c5.9.2 11.7.6 17.6 1l8.7.4c2.1 0 2.4.4 2.5 2.5a8.5 8.5 0 01-1 4.7c-2.4 3.9-4.9 7.7-8 11-1.7 1.8-3.2 4-4.9 5.8a312.6 312.6 0 01-9.3 9.6 23.1 23.1 0 01-8.4 5.4c-8.8 3.2-17.2-1-20-10l-2.4-8.5c-1.6-5.3-5-6.3-9-2.5l-3.1 3a19.8 19.8 0 01-16.5 5.7c-2.2-.3-4.2-1-6-2.2l-5.3-3.8a11.5 11.5 0 01-3.5-5l-2.4-5.6c-1.6-4-5.5-5.5-9.3-2.5l-4 3a17 17 0 01-14.3 2.7c-2.3-.5-4.5-1.3-6.8-2.1-1-.3-2-.9-2.7-1.5a30 30 0 01-10.7-16.3l-1.2-4.5z" fill="#127CCB"/>
  <path fill-rule="evenodd" clip-rule="evenodd" d="M985 450.7a53.3 53.3 0 00-5.3 25.6c1.2.2 4.3.8 5.3-.2 1-1.1.2-7.8.6-9.5 1-5.7 2.7-11.2 4.3-16.6-1.2-.2-2.4-.2-3.6-.2" fill="#5FCE8C"/>
  <path fill-rule="evenodd" clip-rule="evenodd" d="M975.7 446.5c-2.7-2-4.3-4.8-5.2-8-.4-1.8-.9-3.6-.5-5.5a9.2 9.2 0 012.4-4.7c.8-.9 1.9-1.2 3-1.5.8-.1 1.3.2 1.5 1 .2.5.3 1 .3 1.6 0 1.8 0 3.5.2 5.2 0 .8 0 1.6.3 2.4.1.5.5 1 .7 1.5 1 0 1.2-.7 1.4-1.3l1.3-5.4c.3-1.3.9-2.4 1.8-3.3a4 4 0 011-.8c1.3-.7 2.7-.1 3 1.3.3.8.4 1.7.4 2.5l.5 7.2a5.2 5.2 0 00.4 1.7c.3.8 1 1 1.7.6s1.2-1 1.5-1.7c.8-1.9 1.5-3.8 2.4-5.6.4-1 .9-1.8 1.5-2.6 1.4-1.6 3-1.3 3.9.6.6 1.2.7 2.5.6 3.8l-.3 4.5c-.1 1.3-.1 1.3.5 2.2.9-.2 1.6-.8 2-1.6l1.9-3.5a5 5 0 013.3-2.8c1.3-.3 1.9 0 2.4 1.2.6 1.5.5 3 .4 4.4a17 17 0 01-1.5 6.6 9.1 9.1 0 01-2.3 3 15.4 15.4 0 01-5.8 3.5l-.3.2s-5 .4-12-1.3c-7-1.7-11.9-5-12.4-5.4z" fill="#0A3B5F"/>
  <path d="M975.5 466.2a5.7 5.7 0 005.7-5.7 5.7 5.7 0 00-5.7-5.7 5.7 5.7 0 00-5.7 5.7 5.7 5.7 0 005.7 5.7z" fill="#5FCE8C"/>
  <path d="M1154.3 276.3c3-.5 6.2-.9 9.1-.1 3.1.8 4.9 3.4 5.5 6.4.5 2.7-1 5.7-2.8 7.6-1.8 1.9-4.3 1.5-5.2-1-.9-2.5 4-4.5 5.5-5 3.7-1.3 8-1.6 11.6.1 8.6 4 8.5 19 .3 23.3-2.4 1.3-5.6 1-5.5-2.4.2-5.2 5.1-9.8 9.4-12 7.2-3.7 17.5-3.2 22.5 4 .4.6 1.4 0 1-.7-6.3-9.1-19.8-8.2-27.8-1.9-3.2 2.6-6.8 7.3-6.2 11.7.4 2.8 3 3.6 5.5 3 3.5-1 6-4.1 7.3-7.4a16.9 16.9 0 00-1.3-14.5c-4.3-6.8-14.2-6.6-20.4-2.8-1.6 1-3.8 2.8-3 5 .5 1.4 1.9 3 3.5 3 1.9.2 3.5-1.2 4.5-2.6 2.9-3.9 3.1-9-.2-12.7-3.3-3.7-9.3-2.8-13.6-2.1-.8.1-.4 1.2.3 1.1z" fill="#0A3B5F"/>
  <path fill-rule="evenodd" clip-rule="evenodd" d="M922.8 320.4c3.2-.5 6.3-.7 9.6-1 7.7-1 21.3-2.9 23-3 1.7-.1 8.4-1.1 12.2-.6 3.8.5 7 2.3 10.2 4.2 4.1 2.7 16.6 5.8 12.5 12.5-1.6 2.6-16.8 4-20.8 4.3l-23.7 2.4c-6.2.6-13.2 1.7-19.9 2.1-1 .1-2.8-.7-3.2-2.8-.8-4.6-1.3-12.4-1.6-15.3-.1-.5 0-2.5 1.7-2.7z" fill="#FBAF17"/>
  <path fill-rule="evenodd" clip-rule="evenodd" d="M918.7 335.7l.3 3c.4 3.1-3.8 3.9-6.6 4.2-5.2.5-12.4 1.6-13.8 1.6-7.5.5-15 1.6-22.6 2.3l-11 1.2c-3.3.5-3.2-3.6-3.3-5.6-.3-3.3-3.2-12.5-.4-14.6 2.2-1.5 6.9-1 9.5-1.5 3.8-1 7.2-1 11-1.4 6.8-.7 27.2-3.2 30.5-3.2 1.3 0 3 .1 3.8 1.3.2.3 2.2 9.5 2.6 12.7z" fill="#F19020"/>
  <path fill-rule="evenodd" clip-rule="evenodd" d="M800.8 348.7l.3 3c.4 3.1 4.6 3 7.5 2.7l12.6-1.4c7.4-1.2 15-1.8 22.5-2.7 4-.5 8-1 12-1.3 3.3-.2 2.3-4.1 2-6.2-.3-3.2-.5-12.8-3.8-14.2-2.4-1-16.8 1.2-20.6 1.6-6.8.7-27.2 2.7-30.4 3.4-1.3.3-2.9.8-3.5 2.1-.1.3 1 9.8 1.4 13z" fill="#127CCB"/>
  <path fill-rule="evenodd" clip-rule="evenodd" d="M983.6 330a2 2 0 011.9-2.3 2 2 0 11.4 4.1 2 2 0 01-2.3-1.8z" fill="#fff"/>
  <path fill-rule="evenodd" clip-rule="evenodd" d="M976.9 343.5c.6.8 1.6 1 2.6 1 1.2 0 3-1 3.2-2.4a4.9 4.9 0 000-1.5c-.2-1.2-1.5-3-2.8-3-.7-.1-1.4 0-2 .2-.8.1-1.5.5-1.8 1.3-.4 1-.7 2 0 3.1l.8 1.3zm-48.4 5.3c.6.8 1.6 1 2.6 1 1.3 0 3-1 3.2-2.4a4.7 4.7 0 000-1.6c-.1-1.1-1.4-2.9-2.8-3-.7 0-1.4.1-2 .3-.8 0-1.4.5-1.8 1.3-.4 1-.7 2 0 3.1l.8 1.3zm-19.9 2.2c.6.8 1.7 1 2.6 1 1.3 0 3-1.1 3.2-2.5a5 5 0 000-1.5c-.1-1.2-1.4-3-2.8-3l-2 .2c-.8.2-1.4.6-1.7 1.3-.5 1-.7 2-.1 3.2l.8 1.2zm-41.4 4.5c.6.8 1.7 1 2.7 1 1.2 0 2.9-1.1 3.1-2.5a4.9 4.9 0 000-1.5c-.1-1.2-1.4-3-2.8-3l-2 .2c-.8.2-1.4.6-1.7 1.4-.5 1-.7 2-.1 3 .3.5.2.6.8 1.4zm-19 2c.5.8 1.6 1 2.6 1 1.2 0 2.9-1 3.1-2.4a4.8 4.8 0 000-1.5c-.1-1.2-1.4-3-2.7-3-.7-.1-1.4 0-2.1.2-.8.1-1.4.6-1.7 1.3-.4 1-.7 2-.1 3.1l.8 1.3zm-41.5 4.5c.6.8 1.7 1 2.7 1 1.2 0 2.9-1 3.1-2.4a5 5 0 000-1.5c-.1-1.2-1.4-3-2.7-3-.7-.1-1.4 0-2.1.2-.8.2-1.4.6-1.7 1.3-.4 1-.7 2-.1 3.2l.8 1.2z" fill="#0A3B5F"/>
  <path d="M974.4 318a46.9 46.9 0 013.4 2 35 35 0 003.8 2l3 1.3L959 326l-.3-6.6 15.6-1.3z" fill="#0A3B5F"/>
  <path fill-rule="evenodd" clip-rule="evenodd" d="M924.8 329.8l32.2-3-.8-6.7-31.4 3v6.7zm-34.6 4l24.5-2.4-1.3-6.6-23.1 2.3v6.7zm-2.4.3l-23.8 2.8-1.1-6.6 24.8-3 .1 6.8zm-57.4 6.2l23.4-2.3-1.3-6.6-23.1 2.3 1 6.6zm-2.4.3l-24.4 2.9-1.1-6.6 24.3-3 1.2 6.7z" fill="#0A3B5F"/>
  <path opacity=".3" fill-rule="evenodd" clip-rule="evenodd" d="M1412 511c-10.9-2.2-17.8 11-17.8 11l14.8 4 3-15zm-49 158.5l.7 3.7c.1 1.4-.3 2-1.4 2.5-1 .4-1.5 0-2.1-.7-.6-.6-1.5-1-2.3-1.3l-7.8-2h-.4c1-8.8.2-13.4-5.6-15.3-4.6-1.6-9 6.2-11.3 10.8l-6.3-1.8c-2.1-.6-4.2-1.4-6.3-2.2l-.8-.3-1-.6c-.1-.2-.3-.4-.6-.5l2-1.8 3.7-3.4 7.3-6.6 15.7-14.2c1.3-1.2 2-1.8 2-2.4.2-.6-.2-1.4-1-2.8l-3.4-6.7-1.2-2.2-.2-.4-.3-.6-.1-.2c-.2-.6-.5-1.3.3-1.5a2 2 0 011.7.3c.7.6 1.3 1.5 1.7 2.3l2.6 5.1a225.9 225.9 0 001.6 3.3c0 .2.2.4.4.6l.4.5 3.6-3.5 3-3c1 1.5.7 2.4-.1 3.3a96.6 96.6 0 01-3.3 3.3c-1.2 1.2-1.8 1.8-2 2.4-.1.7.2 1.5.8 3.1l1.9 5.1 3.3 9a96 96 0 014.3 16l.5 2.7z" fill="#A3E7FF"/>
  <path opacity=".3" d="M249.1 614.7c.7.6 1.2 1.3 1.7 2 1.3 1.9 1.8 4 2.2 5.8v.2c.2 1.4 0 2.8-.3 4.1-.5 2.3-1.8 4-3.7 5.2l-2.8 1.6a9.2 9.2 0 01-4.3 1.2c-1.4 0-3.1 0-4.9-.5l.5 2v.2c.3 1.6 0 3-.3 4.2-.5 2.2-1.8 4-3.7 5.2l-2.7 1.6a9 9 0 01-4.3 1.1c-1.5 0-3.2 0-5-.4a24.5 24.5 0 01.6 2v.2c.2 1.5 0 2.9-.4 4.2-.5 2.2-1.7 4-3.7 5.2l-2.7 1.5a9 9 0 01-4.3 1.2c-1.8 0-4 0-6-.8a12 12 0 01-4.7-2.8l2.5-2.5c1 1 2 1.6 3.4 2.1 1.6.6 3.4.6 4.9.6a5.6 5.6 0 002.6-.7l2.6-1.5a4.2 4.2 0 002-3c.3-1 .5-2 .4-2.9-.3-1.5-.8-3.2-1.7-4.6l-1.2-1.5 2.5-2.4c1 1 2 1.6 3.4 2.1 1.6.6 3.3.6 4.8.6a5.6 5.6 0 002.7-.7l2.6-1.5a4.2 4.2 0 002-2.9c.3-1.1.5-2 .4-3-.3-1.5-.8-3.2-1.8-4.6l-1.1-1.4 2.5-2.5c.9 1 2 1.7 3.4 2.2 1.6.5 3.3.6 4.8.5 1 0 1.8-.2 2.7-.7l2.6-1.5a4.2 4.2 0 002-2.9c.3-1.1.4-2 .4-3-.4-1.5-.8-3.2-1.8-4.6-.3-.4-.7-1-1.2-1.4l2.4-2.5zm441.1-553a79.7 79.7 0 00-1.9-6c-.8-2-1.5-4.2-2.5-6.2A25.4 25.4 0 00679 41a4 4 0 00-4.3-.6c-1.4.5-2.8 1.2-4 2.1l-8.1 6.8c-2.3 2-4.5 4-6.2 6.4-1.8 2.4-2 4.8-.4 7.3v.1c2.3 4 5.4 7.3 8.3 10.7 1.2 1.4 2.8 2.4 4.1 3.6a4.7 4.7 0 005.6 0c1.4-.7 2.7-1.3 4-2.2 4-2.7 7.3-6.4 11-9.5 1.4-1.1 1.5-2.6 1.1-4zm-6.7-3.3a13 13 0 01-9 11c-2 .6-4 .3-6-.4-2.5-1-4-3-5-5.3l-1-3.9c0-1.2 0-2.3.2-3.3l.1-.7c.2-.6.8-.9 1.3-.7.6.1.8.6.7 1.3a13 13 0 00.8 6.6 7 7 0 0010.1 3.6c3-1.5 4.6-4 5.4-7.2l.3-1.4c.2-.6.8-1 1.3-.8.5.1.9.6.8 1.2zm293.4 65.3l7-15.7H961l15.9 15.7z" fill="#A3E7FF"/>
  <defs>
    <radialGradient id="Illustration__paint0_radial" cx="0" cy="0" r="1" gradientUnits="userSpaceOnUse" gradientTransform="matrix(8.00026 309.00045 -506.51726 13.11412 1031.5 259.5)">
      <stop stop-color="#A3E7FF" stop-opacity=".3"/>
      <stop offset="1" stop-color="#EEFDF9"/>
    </radialGradient>
  </defs>
</svg>
